<svg version="1.1" id="Layer_1" xmlns="http://www.w3.org/2000/svg" xmlns:xlink="http://www.w3.org/1999/xlink" x="0px" y="0px"
	 width="100%" viewBox="0 0 400 400" enable-background="new 0 0 400 400" xml:space="preserve">
<path fill="#FEFEFE" opacity="1.000000" stroke="none" 
	d="
M218.000000,401.000000 
	C145.355881,401.000000 73.211761,401.000000 1.033823,401.000000 
	C1.033823,267.730896 1.033823,134.461746 1.033823,1.096312 
	C134.227402,1.096312 267.454895,1.096312 400.841187,1.096312 
	C400.841187,134.333176 400.841187,267.666565 400.841187,401.000000 
	C340.128510,401.000000 279.314240,401.000000 218.000000,401.000000 
M88.615860,190.287766 
	C88.615860,184.011642 88.615860,177.735504 88.615860,170.652893 
	C82.523117,170.652893 76.930931,170.776978 71.347961,170.603943 
	C68.256271,170.508118 67.260597,171.715332 67.414284,174.700516 
	C67.610298,178.507721 67.235481,182.348572 67.505371,186.146576 
	C67.788460,190.130249 66.611168,191.971207 62.286995,191.587372 
	C58.499329,191.251144 54.646748,191.701385 50.843716,191.466415 
	C47.492573,191.259354 46.458206,192.627640 46.598289,195.807755 
	C46.788021,200.114899 46.822029,204.446289 46.587814,208.749023 
	C46.411041,211.996475 47.890053,212.667480 50.735992,212.635208 
	C56.203678,212.573257 61.674484,212.786865 67.297005,213.831879 
	C67.339958,219.162216 67.466759,224.493790 67.389427,229.822372 
	C67.352432,232.371246 68.295074,233.454910 70.880608,233.396988 
	C75.544853,233.292450 80.216064,233.247467 84.878082,233.387329 
	C87.727203,233.472809 88.724640,232.322159 88.629440,229.545563 
	C88.475334,225.050690 88.645432,220.545288 88.524292,216.048477 
	C88.454163,213.445328 89.532021,212.486481 92.090179,212.557755 
	C96.586739,212.683029 101.093414,212.486786 105.587173,212.655914 
	C108.461998,212.764130 109.428162,211.561401 109.358932,208.825089 
	C109.245155,204.328201 109.218445,199.821838 109.383240,195.327850 
	C109.484550,192.565399 108.593651,191.446732 105.695511,191.492340 
	C100.039001,191.581375 94.377472,191.350754 88.615860,190.287766 
M220.346802,212.886276 
	C220.032272,211.005203 221.432587,207.901672 217.850067,208.291183 
	C216.986603,208.385086 216.010986,211.205902 215.816605,212.858505 
	C215.483154,215.693375 215.724442,218.595840 215.724442,221.469910 
	C215.123672,221.785599 214.522888,222.101288 213.922119,222.416992 
	C213.402878,221.431183 213.012711,220.345612 212.341446,219.477356 
	C209.803680,216.194824 207.320648,212.846603 204.497665,209.821014 
	C203.557053,208.812881 201.637756,208.304291 200.207657,208.378021 
	C199.665787,208.405945 198.871490,210.706268 198.829361,211.991684 
	C198.666321,216.967255 198.591309,221.960709 198.869583,226.925858 
	C198.944916,228.269745 200.378769,229.537506 201.189072,230.840210 
	C201.922882,229.443008 203.142883,228.095184 203.290802,226.638474 
	C203.613434,223.461395 203.390518,220.228912 203.390518,215.505585 
	C207.684189,220.791046 210.839264,224.975021 214.361938,228.822464 
	C215.375946,229.929932 217.449341,230.067444 219.037033,230.649658 
	C219.476501,229.350037 220.246506,228.062561 220.294769,226.748566 
	C220.453110,222.438324 220.349228,218.118439 220.346802,212.886276 
M323.835968,192.302322 
	C318.537628,191.033966 316.322052,188.070969 317.042023,183.216522 
	C317.830292,177.901749 321.093292,176.731125 333.297882,178.209442 
	C331.635101,176.005875 330.910583,173.982224 329.673706,173.594925 
	C324.914612,172.104858 320.097565,172.189590 316.014801,175.604309 
	C312.116150,178.865005 311.668610,183.313278 312.592590,187.910507 
	C313.833466,194.084320 320.031372,197.493011 327.437592,196.315948 
	C333.259979,195.390610 334.086456,194.068909 333.092194,186.215515 
	C332.958038,185.155975 331.508301,183.419495 330.706421,183.440964 
	C327.936371,183.515198 323.059875,183.718811 322.802856,184.789551 
	C321.844452,188.781982 326.006958,186.253922 327.603119,187.406158 
	C327.732727,187.499741 327.884735,187.562286 328.071747,187.663925 
	C329.316589,190.864838 328.135956,192.361618 323.835968,192.302322 
M344.504547,182.290695 
	C343.242920,181.447495 341.981262,180.604279 340.719635,179.761108 
	C341.952637,179.038773 343.114685,177.926743 344.435394,177.686325 
	C346.367798,177.334518 348.471710,177.896561 350.391296,177.512817 
	C351.670349,177.257126 352.755737,176.032608 353.927795,175.241730 
	C352.819672,174.551880 351.782837,173.488602 350.586609,173.260269 
	C348.820465,172.923172 346.940918,173.173752 345.109711,173.185013 
	C335.895935,173.241699 335.895935,173.242950 335.910004,182.397644 
	C335.932434,196.999588 335.932434,196.999496 350.616058,196.050369 
	C350.781891,196.039642 350.994843,196.114105 351.108185,196.036072 
	C352.060425,195.380661 352.994476,194.698853 353.934021,194.024994 
	C352.928253,193.248734 351.974762,191.900787 350.906952,191.803131 
	C347.673615,191.507401 344.395935,191.696198 341.011505,191.696198 
	C341.011505,189.572922 341.011505,188.171448 341.011505,186.374985 
	C343.475525,186.374985 345.648224,186.613541 347.733917,186.290482 
	C349.106720,186.077850 350.354095,185.055817 351.657623,184.396194 
	C350.413757,183.685684 349.222137,182.844742 347.905090,182.316742 
	C347.189911,182.030014 346.261261,182.275665 344.504547,182.290695 
M299.485138,221.406769 
	C294.786530,219.134583 290.087921,216.862396 284.868469,214.338333 
	C289.289886,209.875565 293.937714,213.002350 298.807312,212.956009 
	C298.264191,211.140121 297.427124,208.778976 296.320465,208.645020 
	C292.464844,208.178253 288.350525,207.833603 284.672943,208.770645 
	C282.865326,209.231232 280.800262,212.564209 280.705048,214.680679 
	C280.623352,216.497086 282.816254,219.026428 284.665710,220.153595 
	C286.659241,221.368561 289.487091,221.126495 291.824188,221.902039 
	C293.028473,222.301666 293.957489,223.530960 295.010864,224.385376 
	C293.912231,225.208466 292.802429,226.741196 291.717072,226.724075 
	C288.194733,226.668472 284.681366,226.044952 281.165558,225.640228 
	C280.979645,230.094376 282.962189,231.354584 290.022217,231.242569 
	C297.565430,231.122879 300.196899,228.661942 299.485138,221.406769 
M169.961700,184.786880 
	C172.001450,178.989685 170.477997,174.791779 165.429108,173.798523 
	C161.884369,173.101212 158.145874,173.253113 154.499313,173.320145 
	C153.742035,173.334061 152.384048,174.626617 152.362457,175.361023 
	C152.181564,181.516510 152.176300,187.681076 152.332901,193.837448 
	C152.351913,194.585144 153.789307,195.992661 154.314575,195.882263 
	C155.313126,195.672394 156.646652,194.732483 156.901581,193.830307 
	C157.328369,192.319885 157.018219,190.601242 157.018219,188.869614 
	C161.270508,187.842453 164.093781,188.412872 166.059799,192.415833 
	C166.943924,194.216049 169.267227,195.309418 170.937500,196.723526 
	C171.494293,196.268921 172.051086,195.814331 172.607880,195.359726 
	C171.946472,193.912552 171.121719,192.514740 170.665695,191.005508 
	C170.115906,189.185928 169.879150,187.271774 169.961700,184.786880 
M314.990601,217.085846 
	C312.694458,217.085846 310.398346,217.085846 307.648315,217.085846 
	C307.726379,215.314117 307.786102,213.958786 307.855804,212.376617 
	C311.487244,212.376617 314.652496,212.528549 317.787750,212.288391 
	C318.790314,212.211609 319.713318,211.096329 320.672729,210.456177 
	C319.861816,209.651184 319.080383,208.187531 318.235138,208.149689 
	C313.294403,207.928528 308.338745,208.041214 302.850037,208.041214 
	C302.850037,211.595963 302.847076,214.555313 302.850555,217.514664 
	C302.866486,231.094391 302.867126,231.094360 316.411163,230.868378 
	C316.577545,230.865601 316.776886,230.932327 316.905396,230.863358 
	C318.170532,230.184387 319.423920,229.483521 320.680664,228.788879 
	C319.502167,228.026245 318.378998,226.736115 317.134186,226.605438 
	C314.086365,226.285538 310.982361,226.500977 307.834290,226.500977 
	C307.834290,224.297379 307.834290,222.878174 307.834290,221.125015 
	C310.632416,221.125015 313.133606,221.308273 315.584320,221.036530 
	C316.590424,220.924973 317.487671,219.832153 318.434418,219.185699 
	C317.569946,218.486465 316.705444,217.787216 314.990601,217.085846 
M283.120056,193.643768 
	C283.992554,192.451492 285.089783,191.363083 285.697388,190.048386 
	C287.932129,185.212997 286.843201,179.082092 283.329071,175.766739 
	C279.995422,172.621643 274.301971,171.828400 269.850647,173.888794 
	C265.350830,175.971649 263.196747,180.410019 263.792694,186.370834 
	C264.702240,195.468216 273.782654,199.228958 283.120056,193.643768 
M195.228409,178.395493 
	C191.383942,172.728317 185.006149,170.769989 179.355545,173.521667 
	C174.121902,176.070297 171.846466,182.756485 174.088974,188.996902 
	C176.016586,194.360992 181.768021,197.171173 187.933105,195.761230 
	C194.872589,194.174164 197.748932,187.881363 195.228409,178.395493 
M150.072769,219.624069 
	C150.062378,222.612717 149.908554,225.612259 150.134399,228.582947 
	C150.197098,229.407944 151.555328,230.883194 152.022766,230.775345 
	C153.047028,230.539047 154.442017,229.624084 154.672134,228.726456 
	C155.097092,227.068802 154.793610,225.224380 154.793610,223.698288 
	C159.982651,222.312592 162.595627,224.225723 164.547302,228.286484 
	C165.144547,229.529114 167.688278,229.836243 169.340607,230.571777 
	C169.053864,228.999603 169.173233,227.177658 168.392975,225.909012 
	C166.920471,223.514801 166.098465,221.757401 167.955109,218.865265 
	C170.502029,214.897812 168.193375,209.535385 163.588272,208.663574 
	C159.585358,207.905777 155.129135,207.573318 151.358673,208.690796 
	C150.140533,209.051819 150.458191,214.605865 150.083649,217.785599 
	C150.045059,218.113297 150.077332,218.449356 150.072769,219.624069 
M260.250549,179.993256 
	C258.555450,174.890228 246.686539,171.171814 242.194153,174.374252 
	C241.692871,174.731598 241.084885,175.417511 241.094681,175.940384 
	C241.206665,181.907379 241.355667,187.876724 241.714218,193.832230 
	C241.759430,194.583206 243.348541,195.978561 243.725128,195.828415 
	C244.696579,195.441055 245.802032,194.481735 246.097916,193.518631 
	C246.553940,192.034256 246.378860,190.356003 246.464020,188.889114 
	C251.149857,187.476288 253.742203,189.008545 255.753967,192.922958 
	C256.495483,194.365753 259.056946,194.873199 260.788330,195.807266 
	C260.405853,194.105148 260.345642,192.234329 259.563934,190.741241 
	C258.446716,188.607407 257.099457,186.873718 259.281311,184.519821 
	C260.065826,183.673477 259.988831,182.028580 260.250549,179.993256 
M266.720551,230.906952 
	C267.581024,229.981018 269.357544,228.728134 269.161621,228.179276 
	C266.981567,222.071548 264.613220,216.022308 262.041077,210.067245 
	C260.877533,207.373383 254.828903,206.885437 253.675705,209.482864 
	C250.678162,216.234421 248.166443,223.201675 245.460861,230.082840 
	C245.903320,230.501740 246.345795,230.920624 246.788269,231.339508 
	C248.257492,230.347015 249.706375,229.322571 251.201675,228.371033 
	C252.695526,227.420364 254.133026,226.096252 255.775345,225.718109 
	C260.399872,224.653351 263.982635,226.301697 266.720551,230.906952 
M189.712906,226.207489 
	C191.182587,228.474014 191.556458,232.444794 196.569153,229.992233 
	C193.933838,223.225937 191.440689,216.418182 188.603989,209.756729 
	C187.578674,207.348969 181.404999,207.055649 180.378906,209.391037 
	C177.406281,216.156754 174.865158,223.112076 172.154694,229.992981 
	C172.589905,230.434692 173.025131,230.876404 173.460358,231.318115 
	C174.941345,230.337036 176.406143,229.330338 177.907852,228.382080 
	C179.407959,227.434830 180.849777,226.088562 182.489883,225.747269 
	C184.549515,225.318665 186.784821,225.734283 189.712906,226.207489 
M211.251572,195.615585 
	C213.273376,193.234207 215.295166,190.852829 217.322891,188.464447 
	C225.556503,196.028595 225.556503,196.028595 228.997238,195.013702 
	C226.171021,191.440994 223.459152,188.012878 220.744156,184.580765 
	C223.589676,180.875671 226.142654,177.551468 229.017548,173.808121 
	C221.776443,171.539398 221.263840,178.561401 217.534821,180.442490 
	C213.820175,178.562378 213.168076,171.332077 206.115189,173.995712 
	C209.057724,177.779236 211.662079,181.127945 214.341263,184.572876 
	C211.478943,188.184692 208.830551,191.526581 205.380356,195.880203 
	C207.875717,195.880203 209.254959,195.880203 211.251572,195.615585 
M232.505295,233.637100 
	C231.808792,234.587555 231.112289,235.538010 229.965515,237.102905 
	C238.542297,233.372620 243.370590,228.914673 242.414948,225.770676 
	C237.968796,226.926102 232.887466,228.921829 229.795181,224.096771 
	C228.405365,221.928131 228.233917,217.616379 229.485703,215.386230 
	C232.576477,209.879807 238.070404,212.285889 243.965866,213.420441 
	C243.020767,211.286957 242.808487,209.468369 241.820755,208.805801 
	C237.104538,205.642212 227.909363,208.211868 225.067123,213.246994 
	C221.700699,219.210693 223.901108,227.065887 229.650635,230.089218 
	C230.887802,230.739792 231.821793,231.966965 232.505295,233.637100 
M289.283630,185.221191 
	C289.329346,185.883408 289.338287,186.550568 289.426544,187.207077 
	C290.322449,193.873672 294.004089,196.992538 300.467133,196.576309 
	C306.608612,196.180771 309.659790,192.785660 309.859192,186.040482 
	C309.957275,182.722961 310.158813,179.386459 309.889801,176.093170 
	C309.805725,175.064148 308.336029,174.148331 307.500580,173.180710 
	C306.708313,174.188721 305.331848,175.142670 305.232635,176.214813 
	C304.927979,179.506943 305.154266,182.845093 305.096130,186.163971 
	C305.032532,189.795532 303.617920,192.274139 299.530243,192.273773 
	C295.650360,192.273422 294.335144,189.791626 294.169495,186.463760 
	C294.004608,183.151321 294.312683,179.801544 293.946716,176.520187 
	C293.813843,175.328903 292.332703,174.287979 291.466766,173.178467 
	C290.715027,174.230896 289.445923,175.223343 289.315552,176.347809 
	C289.012054,178.965805 289.257050,181.647354 289.283630,185.221191 
M146.512390,177.808289 
	C147.565521,177.504883 148.618637,177.201477 149.671768,176.898087 
	C149.066879,175.857025 148.550659,173.990295 147.842133,173.914200 
	C144.296768,173.533447 140.484543,172.819901 137.168655,173.714828 
	C130.545303,175.502396 127.789192,183.493668 130.888916,190.063217 
	C133.565689,195.736374 142.778595,198.739166 148.080917,195.403122 
	C149.099854,194.762070 149.266769,192.766815 150.103287,190.719513 
	C146.714630,191.328201 144.633408,191.959412 142.533173,192.030792 
	C136.364609,192.240448 132.651535,186.830627 135.131973,181.305344 
	C137.316986,176.438126 141.515640,176.798309 146.512390,177.808289 
M147.942566,209.901230 
	C147.739532,209.460052 147.552765,208.642426 147.331116,208.632858 
	C142.074036,208.405823 136.812546,208.185959 131.554001,208.228561 
	C131.006180,208.233002 130.025162,209.876312 130.003586,210.777390 
	C129.864685,216.577576 129.841553,222.386063 130.039200,228.183029 
	C130.070190,229.092163 131.418594,229.956390 132.157837,230.841385 
	C133.027100,229.920120 134.458801,229.100830 134.648178,228.056290 
	C135.038513,225.903381 134.765640,223.630249 134.765640,221.147873 
	C138.057175,221.147873 140.556076,221.347275 142.994141,221.049057 
	C143.959778,220.930939 144.790192,219.707199 145.682175,218.986862 
	C144.731079,218.344833 143.826416,217.252777 142.819794,217.148895 
	C140.254425,216.884186 137.643539,217.060760 135.227448,217.060760 
	C134.080200,213.354523 135.278687,212.406662 138.384888,212.269836 
	C141.577942,212.129196 144.737396,211.225113 147.942566,209.901230 
M277.227814,224.204742 
	C277.238953,219.720703 277.368408,215.231262 277.163940,210.757065 
	C277.121704,209.833496 275.981232,208.672028 275.053650,208.213196 
	C274.660950,208.018936 272.828918,209.337418 272.810486,210.000488 
	C272.635590,216.305511 272.639343,222.619461 272.819183,228.924362 
	C272.837677,229.573669 274.274353,230.524185 275.168488,230.682526 
	C275.731720,230.782257 276.914886,229.774979 277.102905,229.072403 
	C277.435364,227.829926 277.220947,226.441116 277.227814,224.204742 
M198.971786,181.495773 
	C198.971786,186.231339 198.971786,190.966919 198.971786,195.702484 
	C199.398453,196.000717 199.825119,196.298950 200.251785,196.597183 
	C201.428055,195.725815 203.580490,194.899460 203.623108,193.975784 
	C203.912125,187.709412 203.827225,181.420364 203.640869,175.145264 
	C203.620667,174.465302 202.180313,173.312042 201.399902,173.313034 
	C200.596466,173.314056 199.258148,174.350464 199.100784,175.125977 
	C198.746155,176.873535 198.976456,178.739792 198.971786,181.495773 
M236.281036,183.907043 
	C234.525070,183.675522 232.712265,183.100586 231.040359,183.377213 
	C230.346848,183.491974 229.954559,185.427307 229.425308,186.534729 
	C231.005600,186.761642 232.653137,187.356064 234.142044,187.083603 
	C235.102036,186.907959 235.829285,185.460434 236.281036,183.907043 
z"/>
<path fill="#1B1B1B" opacity="1.000000" stroke="none" 
	d="
M220.346466,213.344269 
	C220.349228,218.118439 220.453110,222.438324 220.294769,226.748566 
	C220.246506,228.062561 219.476501,229.350037 219.037033,230.649658 
	C217.449341,230.067444 215.375946,229.929932 214.361938,228.822464 
	C210.839264,224.975021 207.684189,220.791046 203.390518,215.505585 
	C203.390518,220.228912 203.613434,223.461395 203.290802,226.638474 
	C203.142883,228.095184 201.922882,229.443008 201.189087,230.840210 
	C200.378769,229.537506 198.944916,228.269745 198.869583,226.925858 
	C198.591309,221.960709 198.666321,216.967255 198.829361,211.991684 
	C198.871490,210.706268 199.665787,208.405945 200.207657,208.378021 
	C201.637756,208.304291 203.557053,208.812881 204.497665,209.821014 
	C207.320648,212.846603 209.803680,216.194824 212.341446,219.477356 
	C213.012711,220.345612 213.402878,221.431183 213.922119,222.416992 
	C214.522888,222.101288 215.123672,221.785599 215.724442,221.469910 
	C215.724442,218.595840 215.483154,215.693375 215.816605,212.858505 
	C216.010986,211.205902 216.986603,208.385086 217.850067,208.291183 
	C221.432587,207.901672 220.032272,211.005203 220.346466,213.344269 
z"/>
<path fill="#232323" opacity="1.000000" stroke="none" 
	d="
M324.294495,192.309906 
	C328.135956,192.361618 329.316589,190.864838 328.071747,187.663925 
	C327.884735,187.562286 327.732727,187.499741 327.603119,187.406158 
	C326.006958,186.253922 321.844452,188.781982 322.802856,184.789551 
	C323.059875,183.718811 327.936371,183.515198 330.706421,183.440964 
	C331.508301,183.419495 332.958038,185.155975 333.092194,186.215515 
	C334.086456,194.068909 333.259979,195.390610 327.437592,196.315948 
	C320.031372,197.493011 313.833466,194.084320 312.592590,187.910507 
	C311.668610,183.313278 312.116150,178.865005 316.014801,175.604309 
	C320.097565,172.189590 324.914612,172.104858 329.673706,173.594925 
	C330.910583,173.982224 331.635101,176.005875 333.297882,178.209442 
	C321.093292,176.731125 317.830292,177.901749 317.042023,183.216522 
	C316.322052,188.070969 318.537628,191.033966 324.294495,192.309906 
z"/>
<path fill="#272727" opacity="1.000000" stroke="none" 
	d="
M344.966736,182.285934 
	C346.261261,182.275665 347.189911,182.030014 347.905090,182.316742 
	C349.222137,182.844742 350.413757,183.685684 351.657623,184.396210 
	C350.354095,185.055817 349.106720,186.077850 347.733917,186.290482 
	C345.648224,186.613541 343.475525,186.374985 341.011505,186.374985 
	C341.011505,188.171448 341.011505,189.572922 341.011505,191.696198 
	C344.395935,191.696198 347.673615,191.507401 350.906952,191.803131 
	C351.974762,191.900787 352.928253,193.248734 353.934021,194.024994 
	C352.994476,194.698853 352.060425,195.380661 351.108185,196.036072 
	C350.994843,196.114105 350.781891,196.039642 350.616058,196.050369 
	C335.932434,196.999496 335.932434,196.999588 335.910004,182.397644 
	C335.895935,173.242950 335.895935,173.241699 345.109711,173.185013 
	C346.940918,173.173752 348.820465,172.923172 350.586609,173.260269 
	C351.782837,173.488602 352.819672,174.551880 353.927795,175.241714 
	C352.755737,176.032608 351.670349,177.257126 350.391296,177.512817 
	C348.471710,177.896561 346.367798,177.334518 344.435394,177.686325 
	C343.114685,177.926743 341.952637,179.038773 340.719635,179.761093 
	C341.981262,180.604279 343.242920,181.447495 344.966736,182.285934 
z"/>
<path fill="#232323" opacity="1.000000" stroke="none" 
	d="
M299.622375,221.771439 
	C300.196899,228.661942 297.565430,231.122879 290.022217,231.242569 
	C282.962189,231.354584 280.979645,230.094376 281.165558,225.640228 
	C284.681366,226.044952 288.194733,226.668472 291.717072,226.724075 
	C292.802429,226.741196 293.912231,225.208466 295.010864,224.385376 
	C293.957489,223.530960 293.028473,222.301666 291.824188,221.902039 
	C289.487091,221.126495 286.659241,221.368561 284.665710,220.153595 
	C282.816254,219.026428 280.623352,216.497086 280.705048,214.680679 
	C280.800262,212.564209 282.865326,209.231232 284.672943,208.770645 
	C288.350525,207.833603 292.464844,208.178253 296.320465,208.645020 
	C297.427124,208.778976 298.264191,211.140121 298.807312,212.956009 
	C293.937714,213.002350 289.289886,209.875565 284.868469,214.338333 
	C290.087921,216.862396 294.786530,219.134583 299.622375,221.771439 
z"/>
<path fill="#232323" opacity="1.000000" stroke="none" 
	d="
M169.734299,185.092712 
	C169.879150,187.271774 170.115906,189.185928 170.665695,191.005508 
	C171.121719,192.514740 171.946472,193.912552 172.607880,195.359726 
	C172.051086,195.814331 171.494293,196.268921 170.937500,196.723526 
	C169.267227,195.309418 166.943924,194.216049 166.059799,192.415833 
	C164.093781,188.412872 161.270508,187.842453 157.018219,188.869614 
	C157.018219,190.601242 157.328369,192.319885 156.901581,193.830307 
	C156.646652,194.732483 155.313126,195.672394 154.314575,195.882263 
	C153.789307,195.992661 152.351913,194.585144 152.332901,193.837448 
	C152.176300,187.681076 152.181564,181.516510 152.362457,175.361023 
	C152.384048,174.626617 153.742035,173.334061 154.499313,173.320145 
	C158.145874,173.253113 161.884369,173.101212 165.429108,173.798523 
	C170.477997,174.791779 172.001450,178.989685 169.734299,185.092712 
M165.880188,179.081680 
	C163.097382,178.373413 160.314560,177.665146 157.198181,176.871994 
	C157.198181,180.041580 157.198181,181.914566 157.198181,184.305191 
	C160.841721,183.302094 165.883072,186.732864 165.880188,179.081680 
z"/>
<path fill="#222222" opacity="1.000000" stroke="none" 
	d="
M315.415771,217.086914 
	C316.705444,217.787216 317.569946,218.486465 318.434418,219.185699 
	C317.487671,219.832153 316.590424,220.924973 315.584320,221.036530 
	C313.133606,221.308273 310.632416,221.125015 307.834290,221.125015 
	C307.834290,222.878174 307.834290,224.297379 307.834290,226.500977 
	C310.982361,226.500977 314.086365,226.285538 317.134186,226.605438 
	C318.378998,226.736115 319.502167,228.026245 320.680664,228.788879 
	C319.423920,229.483521 318.170532,230.184387 316.905396,230.863358 
	C316.776886,230.932327 316.577545,230.865601 316.411163,230.868378 
	C302.867126,231.094360 302.866486,231.094391 302.850555,217.514664 
	C302.847076,214.555313 302.850037,211.595963 302.850037,208.041214 
	C308.338745,208.041214 313.294403,207.928528 318.235138,208.149689 
	C319.080383,208.187531 319.861816,209.651184 320.672729,210.456177 
	C319.713318,211.096329 318.790314,212.211609 317.787750,212.288391 
	C314.652496,212.528549 311.487244,212.376617 307.855804,212.376617 
	C307.786102,213.958786 307.726379,215.314117 307.648315,217.085846 
	C310.398346,217.085846 312.694458,217.085846 315.415771,217.086914 
z"/>
<path fill="#1E1E1E" opacity="1.000000" stroke="none" 
	d="
M282.848206,193.897003 
	C273.782654,199.228958 264.702240,195.468216 263.792694,186.370834 
	C263.196747,180.410019 265.350830,175.971649 269.850647,173.888794 
	C274.301971,171.828400 279.995422,172.621643 283.329071,175.766739 
	C286.843201,179.082092 287.932129,185.212997 285.697388,190.048386 
	C285.089783,191.363083 283.992554,192.451492 282.848206,193.897003 
M268.173309,184.558289 
	C268.406464,188.380630 269.899658,191.310715 273.984009,192.061752 
	C277.961670,192.793167 281.161346,190.494873 282.012054,186.525955 
	C282.940521,182.194138 280.632263,177.997452 276.810577,177.164642 
	C273.356812,176.412003 268.689117,178.182251 268.173309,184.558289 
z"/>
<path fill="#1F1F1F" opacity="1.000000" stroke="none" 
	d="
M195.391174,178.742020 
	C197.748932,187.881363 194.872589,194.174164 187.933105,195.761230 
	C181.768021,197.171173 176.016586,194.360992 174.088974,188.996902 
	C171.846466,182.756485 174.121902,176.070297 179.355545,173.521667 
	C185.006149,170.769989 191.383942,172.728317 195.391174,178.742020 
M190.936783,188.217331 
	C192.622177,182.163269 191.326965,178.219376 187.065445,177.024094 
	C183.708130,176.082443 180.662766,176.749969 178.961151,180.092316 
	C177.125336,183.698288 177.255463,187.475967 180.462784,190.115616 
	C183.926254,192.966110 187.562546,192.398468 190.936783,188.217331 
z"/>
<path fill="#232323" opacity="1.000000" stroke="none" 
	d="
M150.074738,219.202789 
	C150.077332,218.449356 150.045059,218.113297 150.083649,217.785599 
	C150.458191,214.605865 150.140533,209.051819 151.358673,208.690796 
	C155.129135,207.573318 159.585358,207.905777 163.588272,208.663574 
	C168.193375,209.535385 170.502029,214.897812 167.955109,218.865265 
	C166.098465,221.757401 166.920471,223.514801 168.392975,225.909012 
	C169.173233,227.177658 169.053864,228.999603 169.340607,230.571777 
	C167.688278,229.836243 165.144547,229.529114 164.547302,228.286484 
	C162.595627,224.225723 159.982651,222.312592 154.793610,223.698288 
	C154.793610,225.224380 155.097092,227.068802 154.672134,228.726456 
	C154.442017,229.624084 153.047028,230.539047 152.022766,230.775345 
	C151.555328,230.883194 150.197098,229.407944 150.134399,228.582947 
	C149.908554,225.612259 150.062378,222.612717 150.074738,219.202789 
M156.556458,219.092453 
	C159.528564,218.698288 164.278961,220.414948 163.973282,215.328079 
	C163.707123,210.899139 159.237534,212.597519 156.369141,212.302414 
	C155.957794,212.260101 155.502136,212.648346 154.497162,213.084824 
	C154.874603,214.996689 155.264267,216.970459 156.556458,219.092453 
z"/>
<path fill="#181818" opacity="1.000000" stroke="none" 
	d="
M260.277771,180.370682 
	C259.988831,182.028580 260.065826,183.673477 259.281311,184.519821 
	C257.099457,186.873718 258.446716,188.607407 259.563934,190.741241 
	C260.345642,192.234329 260.405853,194.105148 260.788330,195.807266 
	C259.056946,194.873199 256.495483,194.365753 255.753967,192.922958 
	C253.742203,189.008545 251.149857,187.476288 246.464020,188.889114 
	C246.378860,190.356003 246.553940,192.034256 246.097916,193.518631 
	C245.802032,194.481735 244.696579,195.441055 243.725128,195.828415 
	C243.348541,195.978561 241.759430,194.583206 241.714218,193.832230 
	C241.355667,187.876724 241.206665,181.907379 241.094681,175.940384 
	C241.084885,175.417511 241.692871,174.731598 242.194153,174.374252 
	C246.686539,171.171814 258.555450,174.890228 260.277771,180.370682 
M252.955841,178.024872 
	C250.714142,178.024872 248.472427,178.024872 245.975952,178.024872 
	C246.111740,180.531738 246.205338,182.259598 246.308975,184.172684 
	C248.744858,184.172684 250.604233,184.419205 252.352737,184.085281 
	C253.502686,183.865692 255.326721,182.857681 255.369965,182.116455 
	C255.445389,180.823959 254.379761,179.464874 252.955841,178.024872 
z"/>
<path fill="#202020" opacity="1.000000" stroke="none" 
	d="
M266.408752,230.807953 
	C263.982635,226.301697 260.399872,224.653351 255.775345,225.718109 
	C254.133026,226.096252 252.695526,227.420364 251.201675,228.371033 
	C249.706375,229.322571 248.257492,230.347015 246.788269,231.339508 
	C246.345795,230.920624 245.903320,230.501740 245.460861,230.082840 
	C248.166443,223.201675 250.678162,216.234421 253.675705,209.482864 
	C254.828903,206.885437 260.877533,207.373383 262.041077,210.067245 
	C264.613220,216.022308 266.981567,222.071548 269.161621,228.179276 
	C269.357544,228.728134 267.581024,229.981018 266.408752,230.807953 
M260.164154,221.183044 
	C259.642120,218.369095 259.120087,215.555130 258.598053,212.741180 
	C258.098022,212.800507 257.597992,212.859818 257.097931,212.919128 
	C256.134796,215.466797 255.171616,218.014481 253.918823,221.328247 
	C256.144135,221.328247 257.738647,221.328247 260.164154,221.183044 
z"/>
<path fill="#212121" opacity="1.000000" stroke="none" 
	d="
M189.328613,225.996536 
	C186.784821,225.734283 184.549515,225.318665 182.489883,225.747269 
	C180.849777,226.088562 179.407959,227.434830 177.907852,228.382080 
	C176.406143,229.330338 174.941345,230.337036 173.460358,231.318115 
	C173.025131,230.876404 172.589905,230.434692 172.154694,229.992981 
	C174.865158,223.112076 177.406281,216.156754 180.378906,209.391037 
	C181.404999,207.055649 187.578674,207.348969 188.603989,209.756729 
	C191.440689,216.418182 193.933838,223.225937 196.569153,229.992233 
	C191.556458,232.444794 191.182587,228.474014 189.328613,225.996536 
M184.433685,221.324661 
	C185.503357,221.173874 186.573029,221.023087 188.137939,220.802490 
	C186.884003,217.827332 185.814224,215.289078 184.311295,211.723129 
	C183.042557,214.856094 182.011597,216.772751 181.584869,218.815643 
	C181.445786,219.481430 182.882721,220.476440 184.433685,221.324661 
z"/>
<path fill="#202020" opacity="1.000000" stroke="none" 
	d="
M210.942886,195.747894 
	C209.254959,195.880203 207.875717,195.880203 205.380356,195.880203 
	C208.830551,191.526581 211.478943,188.184692 214.341263,184.572876 
	C211.662079,181.127945 209.057724,177.779236 206.115189,173.995712 
	C213.168076,171.332077 213.820175,178.562378 217.535278,180.448410 
	C221.263840,178.561401 221.776443,171.539398 229.017548,173.808121 
	C226.142654,177.551468 223.589676,180.875671 220.744156,184.580765 
	C223.459152,188.012878 226.171021,191.440994 228.997238,195.013702 
	C225.556503,196.028595 225.556503,196.028595 217.322891,188.464447 
	C215.295166,190.852829 213.273376,193.234207 210.942886,195.747894 
z"/>
<path fill="#C91823" opacity="1.000000" stroke="none" 
	d="
M67.143997,212.886169 
	C61.674484,212.786865 56.203678,212.573257 50.735992,212.635208 
	C47.890053,212.667480 46.411041,211.996475 46.587814,208.749023 
	C46.822029,204.446289 46.788021,200.114899 46.598289,195.807755 
	C46.458206,192.627640 47.492573,191.259354 50.843716,191.466415 
	C54.646748,191.701385 58.499329,191.251144 62.286995,191.587372 
	C66.611168,191.971207 67.788460,190.130249 67.505371,186.146576 
	C67.235481,182.348572 67.610298,178.507721 67.414284,174.700516 
	C67.260597,171.715332 68.256271,170.508118 71.347961,170.603943 
	C76.930931,170.776978 82.523117,170.652893 88.615860,170.652893 
	C88.615860,177.735504 88.615860,184.011642 88.678261,190.763947 
	C88.740662,191.240143 88.721924,191.254776 88.404503,191.132050 
	C87.516205,190.122787 86.518929,189.268616 86.448807,188.344101 
	C86.156235,184.487045 86.325363,180.590393 85.937576,176.747360 
	C85.779427,175.180008 84.635307,173.712143 83.939774,172.199005 
	C82.479431,172.877777 81.019096,173.556549 79.453094,174.284439 
	C77.229614,168.733765 75.307381,174.021301 72.295097,175.542816 
	C71.998909,174.307877 71.696541,173.047134 71.394165,171.786392 
	C70.925064,172.103821 70.455971,172.421249 69.986870,172.738678 
	C69.986870,177.127640 70.039398,181.517410 69.973404,185.905380 
	C69.893211,191.237610 67.073524,193.959885 61.741970,193.976990 
	C58.242661,193.988220 54.710453,193.715057 51.261967,194.135315 
	C50.071865,194.280365 48.348625,196.020065 48.160625,197.231750 
	C47.706177,200.160706 47.993130,203.207855 48.017597,206.207077 
	C48.044666,209.525024 49.823673,211.052246 53.060486,210.982071 
	C56.882416,210.899185 60.709095,210.640656 64.521141,210.786606 
	C65.421135,210.821075 66.270851,212.168320 67.131561,212.913391 
	C67.119431,212.915131 67.143997,212.886169 67.143997,212.886169 
z"/>
<path fill="#1E1E1E" opacity="1.000000" stroke="none" 
	d="
M232.700363,233.282806 
	C231.821793,231.966965 230.887802,230.739792 229.650635,230.089218 
	C223.901108,227.065887 221.700699,219.210693 225.067123,213.246994 
	C227.909363,208.211868 237.104538,205.642212 241.820755,208.805801 
	C242.808487,209.468369 243.020767,211.286957 243.965866,213.420441 
	C238.070404,212.285889 232.576477,209.879807 229.485703,215.386230 
	C228.233917,217.616379 228.405365,221.928131 229.795181,224.096771 
	C232.887466,228.921829 237.968796,226.926102 242.414948,225.770676 
	C243.370590,228.914673 238.542297,233.372620 229.965515,237.102905 
	C231.112289,235.538010 231.808792,234.587555 232.700363,233.282806 
z"/>
<path fill="#282828" opacity="1.000000" stroke="none" 
	d="
M289.281708,184.762177 
	C289.257050,181.647354 289.012054,178.965805 289.315552,176.347809 
	C289.445923,175.223343 290.715027,174.230896 291.466766,173.178467 
	C292.332703,174.287979 293.813843,175.328903 293.946716,176.520187 
	C294.312683,179.801544 294.004608,183.151321 294.169495,186.463760 
	C294.335144,189.791626 295.650360,192.273422 299.530243,192.273773 
	C303.617920,192.274139 305.032532,189.795532 305.096130,186.163971 
	C305.154266,182.845093 304.927979,179.506943 305.232635,176.214813 
	C305.331848,175.142670 306.708313,174.188721 307.500580,173.180710 
	C308.336029,174.148331 309.805725,175.064148 309.889801,176.093170 
	C310.158813,179.386459 309.957275,182.722961 309.859192,186.040482 
	C309.659790,192.785660 306.608612,196.180771 300.467133,196.576309 
	C294.004089,196.992538 290.322449,193.873672 289.426544,187.207077 
	C289.338287,186.550568 289.329346,185.883408 289.281708,184.762177 
z"/>
<path fill="#C91823" opacity="1.000000" stroke="none" 
	d="
M88.729340,191.246307 
	C94.377472,191.350754 100.039001,191.581375 105.695511,191.492340 
	C108.593651,191.446732 109.484550,192.565399 109.383240,195.327850 
	C109.218445,199.821838 109.245155,204.328201 109.358932,208.825089 
	C109.428162,211.561401 108.461998,212.764130 105.587173,212.655914 
	C101.093414,212.486786 96.586739,212.683029 92.090179,212.557755 
	C89.532021,212.486481 88.454163,213.445328 88.524292,216.048477 
	C88.645432,220.545288 88.475334,225.050690 88.629440,229.545563 
	C88.724640,232.322159 87.727203,233.472809 84.878082,233.387329 
	C80.216064,233.247467 75.544853,233.292450 70.880608,233.396988 
	C68.295074,233.454910 67.352432,232.371246 67.389427,229.822372 
	C67.466759,224.493790 67.339958,219.162216 67.220505,213.359024 
	C67.143997,212.886169 67.119431,212.915131 67.451706,213.129944 
	C68.260353,217.477097 68.591461,221.633636 69.273918,225.731659 
	C69.618759,227.802307 70.389526,231.384476 71.327995,231.506241 
	C75.961266,232.107361 80.715019,231.779739 85.762306,231.779739 
	C86.178703,227.778656 87.544510,223.933472 86.689812,220.669785 
	C85.440941,215.900986 87.115181,212.706268 89.869438,209.201920 
	C90.626801,209.493484 91.386482,210.047470 92.133675,210.031097 
	C96.961418,209.925354 102.088684,210.558289 106.446564,209.032318 
	C107.949112,208.506180 107.540245,202.500656 107.984070,198.995575 
	C108.046265,198.504395 107.965546,197.996872 107.994308,197.499420 
	C108.206276,193.833466 106.096626,192.923584 102.940910,193.185242 
	C99.486084,193.471710 96.015892,193.989365 92.576965,193.840149 
	C91.257042,193.782867 90.004929,192.162766 88.721924,191.254776 
	C88.721924,191.254776 88.740662,191.240143 88.729340,191.246307 
z"/>
<path fill="#212121" opacity="1.000000" stroke="none" 
	d="
M146.139938,177.646271 
	C141.515640,176.798309 137.316986,176.438126 135.131973,181.305344 
	C132.651535,186.830627 136.364609,192.240448 142.533173,192.030792 
	C144.633408,191.959412 146.714630,191.328201 150.103287,190.719513 
	C149.266769,192.766815 149.099854,194.762070 148.080917,195.403122 
	C142.778595,198.739166 133.565689,195.736374 130.888916,190.063217 
	C127.789192,183.493668 130.545303,175.502396 137.168655,173.714828 
	C140.484543,172.819901 144.296768,173.533447 147.842133,173.914200 
	C148.550659,173.990295 149.066879,175.857025 149.671768,176.898087 
	C148.618637,177.201477 147.565521,177.504883 146.139938,177.646271 
z"/>
<path fill="#262626" opacity="1.000000" stroke="none" 
	d="
M147.927063,210.278168 
	C144.737396,211.225113 141.577942,212.129196 138.384888,212.269836 
	C135.278687,212.406662 134.080200,213.354523 135.227448,217.060760 
	C137.643539,217.060760 140.254425,216.884186 142.819794,217.148895 
	C143.826416,217.252777 144.731079,218.344833 145.682175,218.986862 
	C144.790192,219.707199 143.959778,220.930939 142.994141,221.049057 
	C140.556076,221.347275 138.057175,221.147873 134.765640,221.147873 
	C134.765640,223.630249 135.038513,225.903381 134.648178,228.056290 
	C134.458801,229.100830 133.027100,229.920120 132.157837,230.841385 
	C131.418594,229.956390 130.070190,229.092163 130.039200,228.183029 
	C129.841553,222.386063 129.864685,216.577576 130.003586,210.777390 
	C130.025162,209.876312 131.006180,208.233002 131.554001,208.228561 
	C136.812546,208.185959 142.074036,208.405823 147.331116,208.632858 
	C147.552765,208.642426 147.739532,209.460052 147.927063,210.278168 
z"/>
<path fill="#181818" opacity="1.000000" stroke="none" 
	d="
M277.231628,224.659149 
	C277.220947,226.441116 277.435364,227.829926 277.102905,229.072403 
	C276.914886,229.774979 275.731720,230.782257 275.168488,230.682526 
	C274.274353,230.524185 272.837677,229.573669 272.819183,228.924362 
	C272.639343,222.619461 272.635590,216.305511 272.810486,210.000488 
	C272.828918,209.337418 274.660950,208.018936 275.053650,208.213196 
	C275.981232,208.672028 277.121704,209.833496 277.163940,210.757065 
	C277.368408,215.231262 277.238953,219.720703 277.231628,224.659149 
z"/>
<path fill="#2B2B2B" opacity="1.000000" stroke="none" 
	d="
M198.970261,181.026764 
	C198.976456,178.739792 198.746155,176.873535 199.100784,175.125977 
	C199.258148,174.350464 200.596466,173.314056 201.399902,173.313034 
	C202.180313,173.312042 203.620667,174.465302 203.640869,175.145264 
	C203.827225,181.420364 203.912125,187.709412 203.623108,193.975784 
	C203.580490,194.899460 201.428055,195.725815 200.251785,196.597183 
	C199.825119,196.298950 199.398453,196.000717 198.971786,195.702484 
	C198.971786,190.966919 198.971786,186.231339 198.970261,181.026764 
z"/>
<path fill="#3F3F3F" opacity="1.000000" stroke="none" 
	d="
M236.470932,184.244980 
	C235.829285,185.460434 235.102036,186.907959 234.142044,187.083603 
	C232.653137,187.356064 231.005600,186.761642 229.425293,186.534729 
	C229.954559,185.427307 230.346848,183.491974 231.040359,183.377213 
	C232.712265,183.100586 234.525070,183.675522 236.470932,184.244980 
z"/>
<path fill="#DDDDDD" opacity="1.000000" stroke="none" 
	d="
M166.062469,179.465378 
	C165.883072,186.732864 160.841721,183.302094 157.198181,184.305191 
	C157.198181,181.914566 157.198181,180.041580 157.198181,176.871994 
	C160.314560,177.665146 163.097382,178.373413 166.062469,179.465378 
z"/>
<path fill="#EEEEEE" opacity="1.000000" stroke="none" 
	d="
M268.202271,184.170288 
	C268.689117,178.182251 273.356812,176.412003 276.810577,177.164642 
	C280.632263,177.997452 282.940521,182.194138 282.012054,186.525955 
	C281.161346,190.494873 277.961670,192.793167 273.984009,192.061752 
	C269.899658,191.310715 268.406464,188.380630 268.202271,184.170288 
z"/>
<path fill="#EEEEEE" opacity="1.000000" stroke="none" 
	d="
M190.742798,188.550400 
	C187.562546,192.398468 183.926254,192.966110 180.462784,190.115616 
	C177.255463,187.475967 177.125336,183.698288 178.961151,180.092316 
	C180.662766,176.749969 183.708130,176.082443 187.065445,177.024094 
	C191.326965,178.219376 192.622177,182.163269 190.742798,188.550400 
z"/>
<path fill="#E3E3E3" opacity="1.000000" stroke="none" 
	d="
M156.105194,219.018341 
	C155.264267,216.970459 154.874603,214.996689 154.497162,213.084824 
	C155.502136,212.648346 155.957794,212.260101 156.369141,212.302414 
	C159.237534,212.597519 163.707123,210.899139 163.973282,215.328079 
	C164.278961,220.414948 159.528564,218.698288 156.105194,219.018341 
z"/>
<path fill="#E3E3E3" opacity="1.000000" stroke="none" 
	d="
M253.374115,178.079285 
	C254.379761,179.464874 255.445389,180.823959 255.369965,182.116455 
	C255.326721,182.857681 253.502686,183.865692 252.352737,184.085281 
	C250.604233,184.419205 248.744858,184.172684 246.308975,184.172684 
	C246.205338,182.259598 246.111740,180.531738 245.975952,178.024872 
	C248.472427,178.024872 250.714142,178.024872 253.374115,178.079285 
z"/>
<path fill="#D9D9D9" opacity="1.000000" stroke="none" 
	d="
M259.748657,221.255646 
	C257.738647,221.328247 256.144135,221.328247 253.918823,221.328247 
	C255.171616,218.014481 256.134796,215.466797 257.097931,212.919128 
	C257.597992,212.859818 258.098022,212.800507 258.598053,212.741180 
	C259.120087,215.555130 259.642120,218.369095 259.748657,221.255646 
z"/>
<path fill="#D9D9D9" opacity="1.000000" stroke="none" 
	d="
M184.016266,221.322769 
	C182.882721,220.476440 181.445786,219.481430 181.584869,218.815643 
	C182.011597,216.772751 183.042557,214.856094 184.311295,211.723129 
	C185.814224,215.289078 186.884003,217.827332 188.137939,220.802490 
	C186.573029,221.023087 185.503357,221.173874 184.016266,221.322769 
z"/>
<path fill="#E00A18" opacity="1.000000" stroke="none" 
	d="
M88.404503,191.132050 
	C90.004929,192.162766 91.257042,193.782867 92.576965,193.840149 
	C96.015892,193.989365 99.486084,193.471710 102.940910,193.185242 
	C106.096626,192.923584 108.206276,193.833466 107.994308,197.499420 
	C107.965546,197.996872 108.046265,198.504395 107.984070,198.995575 
	C107.540245,202.500656 107.949112,208.506180 106.446564,209.032318 
	C102.088684,210.558289 96.961418,209.925354 92.133675,210.031097 
	C91.386482,210.047470 90.626801,209.493484 89.869438,209.201920 
	C87.115181,212.706268 85.440941,215.900986 86.689812,220.669785 
	C87.544510,223.933472 86.178703,227.778656 85.762306,231.779739 
	C80.715019,231.779739 75.961266,232.107361 71.327995,231.506241 
	C70.389526,231.384476 69.618759,227.802307 69.273918,225.731659 
	C68.591461,221.633636 68.260353,217.477097 67.463844,213.128204 
	C66.270851,212.168320 65.421135,210.821075 64.521141,210.786606 
	C60.709095,210.640656 56.882416,210.899185 53.060486,210.982071 
	C49.823673,211.052246 48.044666,209.525024 48.017597,206.207077 
	C47.993130,203.207855 47.706177,200.160706 48.160625,197.231750 
	C48.348625,196.020065 50.071865,194.280365 51.261967,194.135315 
	C54.710453,193.715057 58.242661,193.988220 61.741970,193.976990 
	C67.073524,193.959885 69.893211,191.237610 69.973404,185.905380 
	C70.039398,181.517410 69.986870,177.127640 69.986870,172.738678 
	C70.455971,172.421249 70.925064,172.103821 71.394165,171.786392 
	C71.696541,173.047134 71.998909,174.307877 72.295097,175.542816 
	C75.307381,174.021301 77.229614,168.733765 79.453094,174.284439 
	C81.019096,173.556549 82.479431,172.877777 83.939774,172.199005 
	C84.635307,173.712143 85.779427,175.180008 85.937576,176.747360 
	C86.325363,180.590393 86.156235,184.487045 86.448807,188.344101 
	C86.518929,189.268616 87.516205,190.122787 88.404503,191.132050 
z"/>
</svg>